PathFileType	4	(X/Y/Z)	Patient4_TMGait_0pt4_03_left_32.trc.trc
DataRate	CameraRate	NumFrames	NumMarkers	Units	OrigDataRate	OrigDataStartFrame	OrigNumFrames
74.074074074074	74.074074074074	6	33	mm	74.074074074074	106	       141
Frame#	Time	Sacral			L.Shoulder			Chest			R.Shoulder			Neck			R.ASIS			L.ASIS			R.Thigh.Superior			R.Thigh.Lateral			R.Thigh.Inferior			R.Patella			L.Thigh.Superior			L.Thigh.Lateral			L.Thigh.Inferior			L.Patella			L.Shank.Superior			L.Shank.Lateral			L.Shank.Inferior			R.Shank.Superior			R.Shank.Lateral			R.Shank.Inferior			R.Heel			R.Midfoot.Superior			R.Midfoot.Lateral			R.Toe			L.Heel			L.Midfoot.Lateral			L.Midfoot.Superior			L.Toe			L.Elbow			L.Wrist			R.Elbow			R.Wrist			
		X1	Y1	Z1	X2	Y2	Z2	X3	Y3	Z3	X4	Y4	Z4	X5	Y5	Z5	X6	Y6	Z6	X7	Y7	Z7	X8	Y8	Z8	X9	Y9	Z9	X10	Y10	Z10	X11	Y11	Z11	X12	Y12	Z12	X13	Y13	Z13	X14	Y14	Z14	X15	Y15	Z15	X16	Y16	Z16	X17	Y17	Z17	X18	Y18	Z18	X19	Y19	Z19	X20	Y20	Z20	X21	Y21	Z21	X22	Y22	Z22	X23	Y23	Z23	X24	Y24	Z24	X25	Y25	Z25	X26	Y26	Z26	X27	Y27	Z27	X28	Y28	Z28	X29	Y29	Z29	X30	Y30	Z30	X31	Y31	Z31	X32	Y32	Z32	X33	Y33	Z33	

106	43.627500000000	865.573957254857	1010.024294914839	519.483038617951	1027.812843775054	1434.196453855124	321.091654649598	1147.250033199772	1369.855666175367	472.191320121520	1081.785027939730	1444.696694236549	653.283537949157	1021.874853475685	1497.736034098880	477.240023906524	1102.277046555801	941.742367743482	617.398751512560	1066.593627070946	967.543659169217	346.850859843741	1125.950578461799	736.414290629046	584.267447191220	1040.222032217661	631.571702189275	648.155815898042	1108.711744408510	575.508767446930	564.315721269645	1102.291328850653	489.267002984789	569.494359836813	1153.082381332680	789.521414567961	365.052675421511	1109.468177950347	664.386692217575	281.140539585942	1219.040821746467	606.486739964659	333.953081943752	1238.793573827334	523.101211018851	321.645785890046	1186.304897494849	450.366013321746	311.897772449652	1057.096141263701	376.674665755250	269.248913506681	1084.454529240415	244.687292149756	311.940910140802	1071.106270676021	401.833488559219	576.854709887284	996.793409670135	300.371016562017	639.076533635887	1032.135842998925	204.558660865314	572.449387509652	893.293439494032	43.165444647960	539.488658139323	1062.954350047031	96.012804800691	579.696295586330	974.846390676461	37.028486613409	616.890028791475	1183.296923544596	43.221205894080	610.467743711799	923.981482129558	132.311733100294	358.639582511257	981.496427539058	105.977932595825	270.705922257198	1083.074806513502	138.130042926999	284.670073331345	1180.982185364714	50.407252121371	241.000039567327	936.749816639118	1086.144276334714	229.733758253655	948.637601521027	824.895111685235	237.727362649270	1153.724223854284	1125.239828128505	806.168190214972	1394.979495396290	1138.909298255799	738.532243906760	
107	43.641000000000	864.770640933934	1010.823820818607	521.127962715584	1026.502261085152	1434.543088042910	321.901094511360	1147.397367648440	1369.506430801295	471.511103814962	1084.348108570848	1444.607399123621	653.366551315892	1022.578577019257	1497.778604812180	478.109748906484	1101.680514350931	941.431868894531	616.747658706924	1064.047020153962	967.792657674284	346.497264948771	1123.018439637853	735.775364660303	583.550845553759	1036.977391342362	631.561859106597	648.323174848700	1104.261420594528	574.951714079781	564.046649772755	1097.265109817883	489.009849634687	569.467265266063	1150.302742984463	790.330141079082	365.238032392719	1107.676832695725	665.147252169271	281.037779332608	1216.724782166956	607.542384961940	334.895244282612	1237.828983044412	525.745678621071	322.084266476905	1188.882462370745	452.307982034437	311.767218623098	1064.495981673396	371.379566643799	268.610574022329	1099.865882243958	240.881469122007	310.757877220479	1065.998742060760	401.726457844910	576.990324394922	991.689305856132	300.328056981750	639.518120095021	1026.758846173701	204.527142293734	572.650368125721	887.830734063771	43.167920418605	539.611303416323	1057.517881904237	95.936165482448	579.753109866468	969.387687568615	36.991776977464	616.973537341766	1177.845734309491	43.157767459247	610.500534063943	946.992542805254	117.599925820222	357.035182369359	1005.883068759920	96.375332575754	268.645998334201	1105.104201276588	135.083378498567	282.789987291227	1208.653753051494	54.897248601901	237.898914738871	928.850360576080	1087.967781346775	232.819765941546	936.971670536709	826.546175370231	243.225705909840	1162.143118596046	1126.640252206854	804.894259707503	1400.678434534199	1154.702422279959	734.424516210502	
108	43.654500000000	863.944332328655	1011.529518611383	522.561890939239	1025.244613507244	1434.839918386949	322.560735962723	1147.537005967289	1369.056327803760	470.679834829407	1086.875083015093	1444.361067121364	653.283158008785	1023.281563562424	1497.734074161395	478.805354549559	1101.079329549536	941.088047138188	615.907567758045	1061.547685519144	967.904946836463	345.939494108151	1120.123849670977	735.121798361753	582.790510360151	1033.752444031870	631.527140470094	648.420608665485	1099.848420333114	574.379512570470	563.750096425803	1092.265885149392	488.743805293452	569.416012088987	1147.231041931818	790.646163766561	365.394793808836	1105.490377205577	665.518435706489	280.849048083920	1213.770028432042	607.980258081041	335.991958178930	1236.189282127077	527.945472664218	322.731955149875	1190.898868269648	454.020162361500	311.803964385794	1072.011398079437	366.018061956264	267.658538703349	1115.183376023149	237.505545908042	309.591774656345	1060.914598705521	401.598923651886	577.074931861834	986.607509187157	300.279314808861	639.907648721528	1021.401865123537	204.480995148221	572.817590390422	882.372872659214	43.162443737538	539.732493593355	1052.077292905187	95.856208790787	579.786284852185	963.929361429158	36.955708945368	617.049416026091	1172.398568726482	43.100582867237	610.527362458079	970.430852558455	103.833854121036	354.941504381883	1030.752145031584	87.655955186590	266.404457224600	1127.167927262877	132.717638249617	281.083140150003	1236.005238988177	60.216276187523	235.567798179642	921.438270356971	1089.794240550026	235.707378816654	926.188311818637	828.258366568212	248.304964677310	1170.398775406310	1127.851613379625	803.284256288974	1405.594772758523	1169.360048256863	730.260526893513	
109	43.668000000000	863.099866175045	1012.132343986596	523.762975988246	1024.056275915872	1435.079458735158	323.049660212954	1147.658928904394	1368.517398489632	469.709373486495	1089.309877973354	1443.972127907196	653.029792704718	1023.964502219519	1497.607881156815	479.305042162070	1100.485548906100	940.719849055645	614.906709185582	1059.132982685479	967.880624092847	345.194471442039	1117.303548554017	734.453990463448	582.018930157690	1030.554743034561	631.468970406599	648.445212759437	1095.501073055595	573.791462477044	563.440663785634	1087.321324497887	488.465206930345	569.339953002932	1143.935448632483	790.500244466709	365.507402556617	1102.942371736838	665.521830118047	280.561164775990	1210.286371842551	607.849264399574	337.129184748495	1233.966953129515	529.711709232298	323.527149147047	1192.375583637881	455.518390627433	311.995275750758	1079.546411733209	360.776605253749	266.418671220465	1130.118338594225	234.701549251200	308.510600560194	1055.869039856798	401.451880738593	577.105300655338	981.553327785138	300.227642601684	640.230625835451	1016.073054625137	204.419592405456	572.946132297624	876.920472167282	43.150087810702	539.848138264252	1046.632687777311	95.775384877199	579.796194420956	958.472274815882	36.922202933713	617.117538680235	1166.955281630216	43.052171599495	610.550202741327	993.785107903119	91.409141391532	352.470997860592	1055.623041275135	80.037749613763	264.133872890804	1148.863475262899	131.124880331824	279.668916542984	1262.556972854265	66.237571841277	234.246597703213	914.561514239770	1091.580172126349	238.344099302424	916.325094950269	829.972039197687	252.921331525352	1178.431245124723	1128.873045880318	801.346514078439	1409.856679349159	1182.771127567663	726.079605952176	
110	43.681500000000	862.255325333429	1012.625560729804	524.715116288945	1022.947617325746	1435.257776948595	323.349046540795	1147.753714063793	1367.908840484052	468.611118267414	1091.598905241793	1443.463637777147	652.603914221234	1024.607722407127	1497.409371455362	479.593204839746	1099.916633913864	940.336924458840	613.774542570754	1056.842516864477	967.727085896729	344.280663359576	1114.587910918180	733.772450902894	581.260086107463	1027.386323894905	631.392835979489	648.393868222003	1091.236122245719	573.189040881926	563.128933439364	1082.447708298396	488.172334347362	569.237533566875	1140.504763029480	789.939646146226	365.545567436690	1100.076304166966	665.181162709750	280.168918615988	1206.407168315358	607.210381698727	338.177303436472	1231.262868634266	531.055058661755	324.393147772522	1193.339217056226	456.806566178867	312.309783744258	1086.949764020126	355.803791422364	264.960995917650	1144.367957613092	232.534321305889	307.575411924840	1050.868003295666	401.289716365852	577.080087097946	976.524824809381	300.178578691924	640.477637134696	1010.774604361571	204.346026308482	573.033922055287	871.472697859390	43.133029261109	539.953786469247	1041.184919414547	95.697052615144	579.786328281824	953.017037003703	36.892821728404	617.178210328753	1161.514186033101	43.014114049785	610.570868728763	1016.504126358702	80.594723340313	349.795723941777	1079.953688182235	73.619151251918	262.006602449950	1169.767072789553	130.292023454511	278.641227774405	1287.830511358303	72.720599878838	234.071611960366	908.257769976101	1093.286767518119	240.673816816157	907.419567281948	831.634717264349	257.031824413957	1186.167652861477	1129.709618018275	799.085703441026	1413.586241940725	1194.854136927861	721.916055582775	
111	43.695000000000	861.440483368527	1013.002772654970	525.407311735466	1021.921393606465	1435.373203434079	323.443001166613	1147.812127760087	1367.254644638500	467.395076239894	1093.692652294099	1442.863744498364	652.004270137066	1025.190189667422	1497.149848410013	479.659389462101	1099.395068206980	939.948183372945	612.538945574609	1054.717691557877	967.456099901110	343.216543700222	1112.001188859844	733.077506833478	580.526990395731	1024.247620463590	631.306866054365	648.263682714005	1087.061963512502	572.575583947271	562.821008720161	1077.653200416713	487.864552061500	569.107232750555	1137.046829002047	789.023289383683	365.466256100780	1096.946338907189	664.516631088096	279.680973571515	1202.282456428371	606.128823852996	339.009587641307	1228.185224677920	531.980071803793	325.248199025450	1193.819284675650	457.871315865835	312.703871656955	1094.019228931350	351.200077489241	263.400260609474	1157.624749244329	230.987917170962	306.839412101600	1045.911299157154	401.118163235985	576.999684975993	971.515741606530	300.139542124931	640.644957863811	1005.504190448345	204.265805495438	573.081855049974	866.027904286480	43.114011245334	540.045709371150	1035.735296574672	95.625133968693	579.762870021406	947.563726970912	36.868543741874	617.232046084462	1156.072311737126	42.986856350643	610.590938019527	1038.022125748927	71.525083764106	347.140774758456	1103.153358516335	68.384673007667	260.202063172856	1189.441221127496	130.105237137140	278.061104192654	1311.346984979137	79.324969318326	235.048804257542	902.554901114688	1094.879141430843	242.640604753000	899.507239769796	833.199551381268	260.593570386175	1193.525425939456	1130.369108145495	796.505643051490	1416.893826727900	1205.556192210169	717.799072525700	
